<svg width="20" height="20" viewBox="0 0 20 20" fill="none" xmlns="http://www.w3.org/2000/svg">
<path d="M14.1276 0H5.87254C2.63148 0 0 2.56057 0 5.71429V14.2857C0 17.4353 2.63148 20 5.87254 20H14.1276C17.3643 20 20.0001 17.4394 20.0001 14.2857V5.71429C19.9958 2.56057 17.3643 0 14.1276 0ZM18.4933 14.2857C18.4933 16.6291 16.5358 18.5338 14.1276 18.5338H5.87254C3.46428 18.5338 1.50677 16.6291 1.50677 14.2857V5.71429C1.50677 3.37093 3.46428 1.46617 5.87254 1.46617H14.1276C16.5358 1.46617 18.4933 3.37093 18.4933 5.71429V14.2857Z" fill="white"/>
<path d="M10.0233 4.65762C8.60238 4.61585 7.24586 5.13381 6.2113 6.11543C5.14668 7.12211 4.53711 8.52562 4.53711 9.9709C4.53711 12.8991 6.98829 15.2842 9.99753 15.2842C11.4528 15.2842 12.8179 14.7286 13.8396 13.7261C14.8484 12.7361 15.4236 11.4078 15.458 9.99179C15.4923 8.51309 15.0244 7.22654 14.1057 6.27416C13.1356 5.2633 11.7275 4.70774 10.0233 4.65762ZM13.6206 9.95001C13.5777 11.9383 11.9851 13.4922 10.0018 13.4922C8.00568 13.4922 6.38301 11.9133 6.38301 9.9709C6.38301 9.00599 6.79082 8.07031 7.49913 7.40198C8.15163 6.78377 8.99302 6.4496 9.87733 6.4496C9.91168 6.4496 9.94173 6.4496 9.97607 6.4496C11.1738 6.48301 12.1396 6.84642 12.7664 7.49805C13.3459 8.09955 13.6421 8.95168 13.6206 9.95001Z" fill="white"/>
<path d="M15.5914 5.7478C16.2955 5.7478 16.8663 5.19237 16.8663 4.5072C16.8663 3.82204 16.2955 3.2666 15.5914 3.2666C14.8872 3.2666 14.3164 3.82204 14.3164 4.5072C14.3164 5.19237 14.8872 5.7478 15.5914 5.7478Z" fill="white"/>
</svg>
