<svg width="9" height="11" viewBox="0 0 9 11" fill="none" xmlns="http://www.w3.org/2000/svg">
<path d="M4.22659 8.2365C4.7503 8.2365 5.17486 7.81195 5.17486 7.28823C5.17486 6.76452 4.7503 6.33997 4.22659 6.33997C3.70287 6.33997 3.27832 6.76452 3.27832 7.28823C3.27832 7.81195 3.70287 8.2365 4.22659 8.2365Z" fill="black"/>
<path d="M7.26102 3.92864H7.17974V2.95327C7.17974 2.0321 6.90881 1.32767 6.36694 0.8129C5.49995 -0.0269938 4.25366 9.95162e-05 4.22656 9.95162e-05H4.17238C4.11819 9.95162e-05 2.8719 -0.0269938 2.00491 0.8129C1.46304 1.32767 1.19211 2.05919 1.19211 2.95327V3.92864H1.16501C0.514774 3.92864 0 4.44341 0 5.09365V9.83499C0 10.4852 0.514774 11 1.16501 11H7.26102C7.91126 11 8.42603 10.4852 8.42603 9.83499V5.09365C8.42603 4.44341 7.91126 3.92864 7.26102 3.92864ZM1.89653 2.95327C1.89653 2.22175 2.08619 1.67989 2.49259 1.27349C3.14283 0.623247 4.17238 0.65034 4.17238 0.65034H4.25366C4.25366 0.65034 5.2832 0.623247 5.93344 1.27349C6.33984 1.65279 6.5295 2.22175 6.5295 2.95327V3.92864H1.89653V2.95327ZM7.72161 9.86208C7.72161 10.133 7.50486 10.3227 7.26102 10.3227H1.16501C0.894081 10.3227 0.704427 10.1059 0.704427 9.86208V5.09365C0.704427 4.82272 0.921174 4.63306 1.16501 4.63306H7.26102C7.53195 4.63306 7.72161 4.84981 7.72161 5.09365V9.86208Z" fill="black"/>
</svg>
