<svg width="36" height="20" viewBox="0 0 36 20" fill="none" xmlns="http://www.w3.org/2000/svg">
<g clip-path="url(#clip0)">
<path d="M0.398959 9.10668C0.329575 9.10668 0.260191 9.15872 0.260191 9.24545L0 11.2056L0.260191 13.1136C0.277537 13.2003 0.329575 13.2524 0.398959 13.2524C0.468343 13.2524 0.520382 13.2003 0.537728 13.1136L0.849957 11.2056L0.537728 9.24545C0.520382 9.17606 0.468343 9.10668 0.398959 9.10668ZM1.83868 8.04857C1.82134 7.96184 1.7693 7.9098 1.69991 7.9098C1.63053 7.9098 1.56114 7.96184 1.56114 8.04857L1.21422 11.2056L1.56114 14.2931C1.57849 14.3799 1.63053 14.4319 1.69991 14.4319C1.7693 14.4319 1.83868 14.3799 1.83868 14.2931L2.23764 11.2056L1.83868 8.04857ZM7.268 5.13443C7.12923 5.13443 7.00781 5.25585 7.00781 5.39462L6.73027 11.1882L7.00781 14.935C7.00781 15.0737 7.12923 15.1951 7.268 15.1951C7.40677 15.1951 7.52819 15.0737 7.52819 14.935L7.84042 11.1882L7.52819 5.39462C7.52819 5.25585 7.40677 5.13443 7.268 5.13443ZM4.45794 7.16392C4.35386 7.16392 4.26713 7.25065 4.24978 7.37207L3.93755 11.2056L4.24978 14.9176C4.24978 15.039 4.35386 15.1258 4.45794 15.1258C4.56201 15.1258 4.64874 15.039 4.66609 14.9176L5.01301 11.2056L4.66609 7.37207C4.66609 7.25065 4.56201 7.16392 4.45794 7.16392ZM10.1301 15.2125C10.3036 15.2125 10.4423 15.0737 10.4597 14.8829L10.7372 11.2056L10.4597 3.48656C10.4597 3.3131 10.3036 3.15698 10.1301 3.15698C9.95664 3.15698 9.81787 3.29575 9.80052 3.48656L9.55768 11.2056L9.80052 14.8829C9.81787 15.0737 9.95664 15.2125 10.1301 15.2125ZM15.9757 15.2298C16.2186 15.2298 16.4094 15.039 16.4267 14.7788L16.6175 11.2056L16.4267 2.28968C16.4267 2.04683 16.2186 1.83868 15.9757 1.83868C15.7329 1.83868 15.5421 2.02949 15.5247 2.28968L15.3513 11.2056L15.5247 14.7962C15.5421 15.0217 15.7502 15.2298 15.9757 15.2298ZM13.0442 15.2125C13.2524 15.2125 13.4258 15.039 13.4258 14.8309L13.6513 11.2056L13.4258 3.43452C13.4258 3.22637 13.2524 3.05291 13.0442 3.05291C12.8361 3.05291 12.6626 3.22637 12.6626 3.43452L12.4545 11.2056L12.6626 14.8309C12.6626 15.039 12.8187 15.2125 13.0442 15.2125ZM5.86297 15.1778C5.98439 15.1778 6.08847 15.0737 6.10581 14.9523L6.43539 11.2056L6.10581 7.63226C6.08847 7.49349 6.00173 7.40676 5.86297 7.40676C5.74154 7.40676 5.63747 7.51084 5.62012 7.63226L5.32524 11.1882L5.62012 14.935C5.63747 15.0737 5.74154 15.1778 5.86297 15.1778ZM3.07025 14.9696C3.15698 14.9696 3.24371 14.9003 3.24371 14.7962L3.60798 11.1882L3.24371 7.4588C3.22637 7.35473 3.15698 7.28534 3.07025 7.28534C2.98352 7.28534 2.89679 7.35473 2.89679 7.4588L2.56722 11.2056L2.89679 14.8135C2.89679 14.9003 2.98352 14.9696 3.07025 14.9696ZM14.5013 3.29575C14.2758 3.29575 14.085 3.46921 14.085 3.71206L13.8942 11.2056L14.085 14.8135C14.085 15.039 14.2758 15.2298 14.5013 15.2298C14.7268 15.2298 14.9176 15.0564 14.9176 14.8135L15.1258 11.2056L14.9176 3.71206C14.9176 3.48656 14.7268 3.29575 14.5013 3.29575ZM8.69037 15.2125C8.84649 15.2125 8.98526 15.0911 8.98526 14.9176L9.28014 11.1882L8.98526 4.05898C8.98526 3.90286 8.84649 3.76409 8.69037 3.76409C8.53426 3.76409 8.39549 3.88552 8.39549 4.05898L8.1353 11.1882L8.39549 14.9176C8.41284 15.0911 8.53426 15.2125 8.69037 15.2125ZM11.9341 14.8656L12.1769 11.2056L11.9341 3.22637C11.9341 3.03556 11.778 2.87944 11.5872 2.87944C11.3964 2.87944 11.2402 3.03556 11.2402 3.22637L11.0147 11.2056L11.2402 14.8656C11.2402 15.0564 11.3964 15.2125 11.5872 15.2125C11.778 15.2125 11.9341 15.0564 11.9341 14.8656ZM30.7719 6.60885C30.1821 6.60885 29.6097 6.73027 29.1067 6.93842C28.7598 3.05291 25.4987 0 21.5091 0C20.5377 0 19.5837 0.190807 18.7511 0.520382C18.4215 0.641804 18.3348 0.780572 18.3348 1.02342V14.7095C18.3348 14.9696 18.5429 15.1951 18.8031 15.2125C18.8205 15.2125 30.6852 15.2125 30.7719 15.2125C33.1483 15.2125 35.0911 13.2871 35.0911 10.8933C35.0737 8.53426 33.1483 6.60885 30.7719 6.60885ZM17.4501 1.00607C17.1899 1.00607 16.9818 1.21422 16.9818 1.47441L16.791 11.1882L16.9818 14.7095C16.9818 14.9696 17.1899 15.1778 17.4501 15.1778C17.7103 15.1778 17.9185 14.9696 17.9185 14.7095L18.1266 11.1882L17.9185 1.47441C17.9358 1.23157 17.7103 1.00607 17.4501 1.00607ZM3.48656 17.9705C2.98352 17.8491 2.84475 17.7797 2.84475 17.5889C2.84475 17.4501 2.96618 17.294 3.3131 17.294C3.60798 17.294 3.83348 17.4154 4.04163 17.6236L4.50997 17.1726C4.19775 16.8604 3.83348 16.6696 3.33044 16.6696C2.68864 16.6696 2.1856 17.0338 2.1856 17.6062C2.1856 18.248 2.60191 18.4215 3.19167 18.5603C3.79879 18.699 3.90286 18.7858 3.90286 18.9939C3.90286 19.2368 3.7294 19.3408 3.34779 19.3408C3.03556 19.3408 2.75802 19.2368 2.53252 18.9766L2.06418 19.3929C2.30703 19.7572 2.77537 19.9827 3.3131 19.9827C4.19775 19.9827 4.57936 19.5663 4.57936 18.9592C4.56201 18.2654 3.98959 18.0919 3.48656 17.9705ZM6.45273 16.6696C5.56808 16.6696 5.0477 17.3461 5.0477 18.3348C5.0477 19.3235 5.56808 20 6.45273 20C7.33738 20 7.85776 19.3235 7.85776 18.3348C7.85776 17.3461 7.32003 16.6696 6.45273 16.6696ZM6.45273 19.3582C5.93235 19.3582 5.7242 18.9072 5.7242 18.3348C5.7242 17.7624 5.93235 17.3114 6.45273 17.3114C6.97311 17.3114 7.18127 17.7624 7.18127 18.3348C7.18127 18.9072 6.97311 19.3582 6.45273 19.3582ZM10.4423 18.5429C10.4423 19.0633 10.1821 19.3755 9.78317 19.3755C9.36687 19.3755 9.12402 19.046 9.12402 18.5256V16.7216H8.48222V18.5256C8.48222 19.4623 9.0026 19.9827 9.78317 19.9827C10.5984 19.9827 11.0841 19.4449 11.0841 18.5082V16.7216H10.4423V18.5429ZM13.8595 18.0919C13.8595 18.2654 13.8768 18.6817 13.8768 18.8031C13.8422 18.7164 13.7381 18.5603 13.6513 18.4389L12.5065 16.7389H11.882V19.948H12.5239V18.5256C12.5239 18.3521 12.5065 17.9358 12.5065 17.8144C12.5412 17.9011 12.6453 18.0572 12.732 18.1787L13.9115 19.9306H14.484V16.7216H13.8422V18.0919H13.8595ZM16.34 16.7216H15.3339V19.948H16.2879C17.1206 19.948 17.9358 19.4623 17.9358 18.3348C17.9358 17.1552 17.2593 16.7216 16.34 16.7216ZM16.2879 19.3235H15.9757V17.3461H16.3226C16.9991 17.3461 17.2767 17.6756 17.2767 18.3348C17.2767 18.9245 16.9644 19.3235 16.2879 19.3235ZM19.9306 17.3114C20.2255 17.3114 20.399 17.4328 20.5204 17.6583L21.1101 17.3807C20.902 16.9644 20.5377 16.6696 19.9306 16.6696C19.098 16.6696 18.5082 17.3461 18.5082 18.3348C18.5082 19.3582 19.0807 20 19.9133 20C20.503 20 20.8846 19.7225 21.1101 19.2715L20.5724 18.9419C20.399 19.2194 20.2255 19.3582 19.948 19.3582C19.4623 19.3582 19.1847 18.9245 19.1847 18.3348C19.1674 17.745 19.4449 17.3114 19.9306 17.3114ZM22.3244 16.7216H21.6826V19.948H23.6253V19.3062H22.3417V16.7216H22.3244ZM25.3079 16.6696C24.4232 16.6696 23.9029 17.3461 23.9029 18.3348C23.9029 19.3235 24.4232 20 25.3079 20C26.1925 20 26.7129 19.3235 26.7129 18.3348C26.7129 17.3461 26.1925 16.6696 25.3079 16.6696ZM25.3079 19.3582C24.7875 19.3582 24.5794 18.9072 24.5794 18.3348C24.5794 17.7624 24.7875 17.3114 25.3079 17.3114C25.8283 17.3114 26.0364 17.7624 26.0364 18.3348C26.0364 18.9072 25.8283 19.3582 25.3079 19.3582ZM29.2975 18.5429C29.2975 19.0633 29.0373 19.3755 28.6383 19.3755C28.222 19.3755 27.9792 19.046 27.9792 18.5256V16.7216H27.3374V18.5256C27.3374 19.4623 27.8578 19.9827 28.6383 19.9827C29.4536 19.9827 29.9393 19.4449 29.9393 18.5082V16.7216H29.2975V18.5429ZM31.7606 16.7216H30.7546V19.948H31.7086C32.5412 19.948 33.3565 19.4623 33.3565 18.3348C33.3565 17.1552 32.68 16.7216 31.7606 16.7216ZM31.7086 19.3235H31.3964V17.3461H31.7433C32.4198 17.3461 32.6973 17.6756 32.6973 18.3348C32.6973 18.9245 32.3851 19.3235 31.7086 19.3235Z" fill="white"/>
</g>
<defs>
<clipPath id="clip0">
<rect width="35.0737" height="20" fill="white"/>
</clipPath>
</defs>
</svg>
