<svg width="20" height="20" viewBox="0 0 20 20" fill="none" xmlns="http://www.w3.org/2000/svg">
<circle cx="10" cy="10" r="9.25" stroke="white" stroke-width="1.5"/>
<path d="M15.8334 6.91932C15.4033 7.10297 14.9432 7.22863 14.4597 7.28341C14.9532 6.99665 15.3333 6.54234 15.5133 6.00426C15.0499 6.26847 14.5397 6.46179 13.9929 6.5649C13.5528 6.11381 12.9326 5.8335 12.2424 5.8335C10.9187 5.8335 9.84837 6.87099 9.84837 8.14691C9.84837 8.32735 9.86838 8.50456 9.91172 8.67532C7.92115 8.57866 6.15732 7.65716 4.97698 6.2588C4.77025 6.60034 4.65355 6.99665 4.65355 7.42196C4.65355 8.22424 5.07701 8.93309 5.71719 9.34873C5.32375 9.33584 4.95697 9.23273 4.63355 9.05875C4.63355 9.06841 4.63355 9.07808 4.63355 9.08774C4.63355 10.209 5.46045 11.1434 6.5541 11.3561C6.35404 11.4076 6.14065 11.4366 5.92392 11.4366C5.77054 11.4366 5.6205 11.4205 5.47379 11.3947C5.77721 12.313 6.66413 12.9832 7.71109 13.0025C6.89086 13.6244 5.86057 13.9917 4.73691 13.9917C4.54352 13.9917 4.35347 13.982 4.16675 13.9594C5.22705 14.6167 6.48408 15.0002 7.8378 15.0002C12.2424 15.0002 14.6497 11.4753 14.6497 8.41756C14.6497 8.31768 14.6464 8.2178 14.6431 8.11791C15.1065 7.78927 15.5133 7.38329 15.8334 6.91932Z" fill="white"/>
</svg>
