<svg width="27" height="19" viewBox="0 0 27 19" fill="none" xmlns="http://www.w3.org/2000/svg">
<path d="M25.6977 3.16686L25.6985 3.16985C25.9635 4.14364 26.1008 5.7059 26.1675 7.08037C26.2004 7.75603 26.2155 8.36707 26.2223 8.80925C26.2257 9.03016 26.2271 9.20849 26.2276 9.33115C26.2279 9.39247 26.2279 9.43984 26.2279 9.47163L26.2278 9.50742L26.2278 9.51616L26.2278 9.51817L26.2278 9.51859V9.52231V9.52235V9.52237V9.52278L26.2278 9.5248L26.2278 9.53354L26.2276 9.56922C26.2275 9.60091 26.2273 9.6481 26.2267 9.70918C26.2257 9.83136 26.2235 10.009 26.2192 10.229C26.2107 10.6694 26.1935 11.2781 26.1593 11.9515C26.0898 13.3192 25.9528 14.879 25.6972 15.8576C25.4544 16.7617 24.7447 17.4737 23.8505 17.7167C23.3992 17.8358 22.543 17.9373 21.4505 18.0162C20.3771 18.0937 19.1355 18.1457 17.9529 18.1805C16.7716 18.2152 15.655 18.2326 14.8334 18.2413C14.4227 18.2457 14.0861 18.2478 13.8524 18.2489C13.7355 18.2495 13.6444 18.2497 13.5826 18.2499L13.5124 18.25L13.4946 18.25L13.4902 18.25H13.4892H13.4889L13.4889 19L13.4888 18.25H13.4886H13.4876L13.4832 18.25L13.4655 18.25L13.3955 18.2499C13.3339 18.2497 13.243 18.2494 13.1265 18.2489C12.8933 18.2477 12.5576 18.2455 12.1479 18.241C11.3281 18.2319 10.2138 18.2138 9.03407 18.1777C7.85309 18.1415 6.61264 18.0875 5.53874 18.0069C4.44398 17.9248 3.5853 17.8191 3.13047 17.6952L3.12938 17.6949C2.23381 17.4524 1.52304 16.7395 1.28034 15.8342C1.02512 14.8681 0.888054 13.3092 0.818482 11.9376C0.784254 11.2628 0.767112 10.652 0.75854 10.2098C0.754257 9.98893 0.752121 9.81053 0.751057 9.68777C0.750525 9.62641 0.75026 9.57898 0.750129 9.54713L0.750015 9.51125L0.750002 9.50247L0.75 9.50044L0.75 9.50004V9.50002V9.49998V9.49996L0.75 9.49957L0.750002 9.49755L0.750015 9.48882L0.750129 9.45313C0.75026 9.42144 0.750525 9.37425 0.751057 9.31317C0.752121 9.191 0.754256 9.01339 0.758539 8.79336C0.76711 8.35298 0.784251 7.74428 0.818478 7.07086C0.887988 5.70324 1.02494 4.14353 1.28058 3.16489C1.5238 2.2591 2.25709 1.52517 3.12914 1.28283C3.58089 1.16396 4.43621 1.06257 5.52727 0.983807C6.60067 0.906315 7.84225 0.854311 9.02483 0.819529C10.2062 0.784782 11.3228 0.767389 12.1444 0.75869C12.5551 0.754341 12.8917 0.752169 13.1254 0.751083C13.2423 0.750541 13.3334 0.75027 13.3952 0.750135L13.4654 0.750017L13.4832 0.750002L13.4875 0.75L13.4886 0.75H13.4888L13.4889 0L13.4889 0.75H13.4892L13.4902 0.75L13.4946 0.750002L13.5123 0.750017L13.5825 0.75014C13.6443 0.75028 13.7354 0.750562 13.8522 0.751126C14.0859 0.752255 14.4225 0.754514 14.8331 0.759035C15.6545 0.768081 16.7709 0.786167 17.9521 0.822296C19.1345 0.858463 20.3756 0.912532 21.4484 0.993079C22.5427 1.07524 23.3973 1.18092 23.8454 1.30428L23.8484 1.3051C24.7443 1.54773 25.4553 2.26109 25.6977 3.16686Z" stroke="white" stroke-width="1.5"/>
<path d="M10.8005 13.5686L17.8228 9.50036L10.8005 5.43213V13.5686Z" fill="white"/>
</svg>
